<?xml version="1.0" standalone="no"?><!DOCTYPE svg PUBLIC "-//W3C//DTD SVG 1.1//EN" "http://www.w3.org/Graphics/SVG/1.1/DTD/svg11.dtd"><svg t="1585908162526" class="icon" viewBox="0 0 1024 1024" version="1.1" xmlns="http://www.w3.org/2000/svg" p-id="2443" xmlns:xlink="http://www.w3.org/1999/xlink" width="200" height="200"><defs><style type="text/css"></style></defs><path d="M478.422 12.37C214.62 12.37 0 227.008 0 490.836 0 754.64 214.62 969.26 478.422 969.26c263.83 0 478.468-214.62 478.468-478.424 0.002-263.828-214.638-478.466-478.468-478.466z m0 943.428c-256.38 0-464.96-208.58-464.96-464.962 0-256.404 208.582-465.004 464.96-465.004 256.406 0 465.006 208.6 465.006 465.004 0.002 256.38-208.6 464.962-465.006 464.962z" fill="#4B555F" p-id="2444"></path><path d="M478.422 116.804c-206.218 0-373.988 167.79-373.988 374.03s167.77 374.03 373.988 374.03c206.242 0 374.032-167.79 374.032-374.03S684.666 116.804 478.422 116.804z m0 734.6c-198.796 0-360.526-161.75-360.526-360.568S279.626 130.266 478.422 130.266c198.82 0 360.57 161.75 360.57 360.568s-161.75 360.57-360.57 360.57z" fill="#4B555F" p-id="2445"></path><path d="M478.426 41.536c-247.722 0-449.26 201.554-449.26 449.298 0 247.722 201.536 449.258 449.26 449.258 247.742 0 449.296-201.536 449.296-449.258 0-247.744-201.554-449.298-449.296-449.298z m0 839.034c-214.88 0-389.696-174.836-389.696-389.736 0-214.9 174.816-389.734 389.696-389.734 214.898 0 389.734 174.834 389.734 389.734 0 214.902-174.836 389.736-389.734 389.736z" fill="#FFD351" p-id="2446"></path><path d="M525.4 675.724V374.99h-92.326l-66.554 54.562h81.854v246.172h-78.956v45.892h223.06v-45.892z" fill="#71CBDF" p-id="2447"></path><path d="M485.32 289.304m-44.934 0a44.934 44.934 0 1 0 89.868 0 44.934 44.934 0 1 0-89.868 0Z" fill="#71CBDF" p-id="2448"></path><path d="M532.13 668.994V368.258h-101.462l-82.976 68.024h93.952v232.71h-78.956v59.354h236.522v-59.354h-67.08z m53.616 45.892H376.148v-32.43h78.956V422.822h-69.758l50.132-41.1h83.188v300.734h67.078v32.43zM485.32 237.64c-28.488 0-51.664 23.176-51.664 51.664 0 28.488 23.176 51.664 51.664 51.664 28.484 0 51.662-23.176 51.662-51.664 0-28.488-23.178-51.664-51.662-51.664z m0 89.866c-21.066 0-38.202-17.138-38.202-38.202 0-21.064 17.136-38.202 38.202-38.202 21.064 0 38.2 17.138 38.2 38.202 0 21.064-17.134 38.202-38.2 38.202zM177.834 436.66l-13.252-2.376a317.44 317.44 0 0 0-2.13 13.584l13.344 1.794c0.586-4.364 1.266-8.698 2.038-13.002z m5.754-25.688l-12.994-3.514a316.392 316.392 0 0 0-3.3 13.35l13.138 2.942a301.528 301.528 0 0 1 3.156-12.778z m-9.272 51.776l-13.406-1.216a325.66 325.66 0 0 0-0.952 13.708l13.444 0.648c0.216-4.406 0.52-8.786 0.914-13.14z m39.588-124.632l-11.652-6.744c-2.282 3.94-4.514 8-6.634 12.066l11.932 6.23a300.472 300.472 0 0 1 6.354-11.552z m14.168-22.228l-11.03-7.718a318.6 318.6 0 0 0-7.644 11.438l11.35 7.24a311.716 311.716 0 0 1 7.324-10.96z m-55.024 174.926l0.004-1.776-13.462-0.048-0.004 1.826c0 3.986 0.074 7.954 0.22 11.906l13.454-0.496a304.62 304.62 0 0 1-0.212-11.412z m28.652-129.328l-12.196-5.704c-1.942 4.152-3.8 8.352-5.568 12.6l12.428 5.174a309.802 309.802 0 0 1 5.336-12.07z m-10.136 24.36l-12.642-4.628a316.44 316.44 0 0 0-4.454 13.048l12.832 4.068c1.334-4.2 2.756-8.364 4.264-12.488z m-14.328 155.654l-13.278 2.222c0.758 4.536 1.612 9.038 2.56 13.506l13.168-2.79a303.664 303.664 0 0 1-2.45-12.938z m-3.216-26.128l-13.418 1.068c0.364 4.586 0.826 9.146 1.382 13.676l13.362-1.644c-0.534-4.34-0.974-8.706-1.326-13.1z m38.034 124.894l-11.736 6.598a314.894 314.894 0 0 0 6.986 11.82l11.438-7.1a306.6 306.6 0 0 1-6.688-11.318z m-11.88-23.44l-12.258 5.564a320.656 320.656 0 0 0 5.936 12.368l12.008-6.084a308.346 308.346 0 0 1-5.686-11.848z m49.308 95.906a320.454 320.454 0 0 0 9.778 9.662l9.256-9.774a307.41 307.41 0 0 1-9.366-9.258l-9.668 9.37z m-23.57-50.126l-11.122 7.588a325.036 325.036 0 0 0 7.978 11.178l10.788-8.054a307.33 307.33 0 0 1-7.644-10.712z m18.184-367.63l-10.324-8.64a322.114 322.114 0 0 0-8.598 10.738l10.688 8.186a304.172 304.172 0 0 1 8.234-10.284zM190.362 592.438l-12.696 4.474a312.132 312.132 0 0 0 4.854 12.868l12.49-5.026a301.28 301.28 0 0 1-4.648-12.316z m-7.668-25.184l-13.038 3.356c1.14 4.422 2.39 8.876 3.718 13.238l12.88-3.922a300.946 300.946 0 0 1-3.56-12.672z m58.952 116.438l-10.43 8.51a322.1 322.1 0 0 0 8.912 10.46l10.058-8.948a306.972 306.972 0 0 1-8.54-10.022z m520.874-305.2l12.516-4.95a310.888 310.888 0 0 0-5.32-12.644l-12.288 5.494a302.772 302.772 0 0 1 5.092 12.1z m-500.672-102.974l-9.544-9.494a320.586 320.586 0 0 0-9.486 9.958l9.948 9.072a304.83 304.83 0 0 1 9.082-9.536z m456.118 4.818a320.504 320.504 0 0 0-9.294-10.124l-9.72 9.314a304.492 304.492 0 0 1 8.9 9.698l10.114-8.888z m6.402 29.374l10.842-7.986a320.826 320.826 0 0 0-8.392-10.88l-10.482 8.452a295.352 295.352 0 0 1 8.032 10.414z m27.442 44.804l12.042-6.014a314.34 314.34 0 0 0-6.394-12.142l-11.77 6.53a305.872 305.872 0 0 1 6.122 11.626z m29.948 100.382l13.366-1.584c-0.54-4.566-1.17-9.1-1.894-13.606l-13.296 2.138c0.698 4.322 1.302 8.674 1.824 13.052z m-10.624-51.528l12.902-3.844a321.996 321.996 0 0 0-4.212-13.09l-12.726 4.404c1.434 4.136 2.78 8.314 4.036 12.53z m12.556 77.78l13.454-0.418c-0.14-4.6-0.386-9.176-0.718-13.726l-13.426 0.99c0.322 4.36 0.55 8.746 0.69 13.154z m-6.126-52.246l13.182-2.726a322.224 322.224 0 0 0-3.062-13.398l-13.06 3.284a314.54 314.54 0 0 1 2.94 12.84z m-38.502-97.374l11.482-7.026a311.14 311.14 0 0 0-7.424-11.556l-11.166 7.522a296 296 0 0 1 7.108 11.06z m-156.68-142.244a314.884 314.884 0 0 0-13.094-4.198l-3.83 12.906c4.22 1.252 8.396 2.59 12.534 4.018l4.39-12.726z m25.64 10.104a319.748 319.748 0 0 0-12.704-5.33l-4.934 12.524c4.098 1.616 8.156 3.318 12.17 5.104l5.468-12.298z m90.926 61.108a320.646 320.646 0 0 0-10.132-9.296l-8.886 10.112a304.754 304.754 0 0 1 9.702 8.904l9.316-9.72z m-417.754-2.84l-8.704-10.272a324.404 324.404 0 0 0-10.292 9.102l9.128 9.892a316.498 316.498 0 0 1 9.868-8.722z m20.788-16.126l-7.788-10.982a322.276 322.276 0 0 0-11.032 8.184l8.252 10.638a306.4 306.4 0 0 1 10.568-7.84z m376.316 0.818a314.996 314.996 0 0 0-10.898-8.398l-7.984 10.838a297.656 297.656 0 0 1 10.426 8.04l8.456-10.48z m-22.152-16.32a318.84 318.84 0 0 0-11.578-7.432l-7.03 11.484a305.694 305.694 0 0 1 11.096 7.116l7.512-11.168z m-23.476-14.356c-3.98-2.204-8.08-4.36-12.19-6.41l-6.004 12.048c3.94 1.964 7.832 4.008 11.666 6.136l6.528-11.774z m-265.928-19.6a318.66 318.66 0 0 0-12.74 5.082l5.258 12.392c4.02-1.706 8.088-3.33 12.196-4.866l-4.714-12.608zM666.86 731.184l8.318 10.584a327.668 327.668 0 0 0 10.614-8.71l-8.756-10.224a315.036 315.036 0 0 1-10.176 8.35z m-21.376 15.336l7.37 11.262a316.504 316.504 0 0 0 11.328-7.766l-7.852-10.936a307.46 307.46 0 0 1-10.846 7.44z m59.818-51.242l10.01 9.004a335.34 335.34 0 0 0 8.98-10.4l-10.378-8.58a317.338 317.338 0 0 1-8.612 9.976z m-82.412 64.682l6.38 11.856a316.592 316.592 0 0 0 11.946-6.762l-6.888-11.568a306.354 306.354 0 0 1-11.438 6.474z m-353.448-28.328a323.936 323.936 0 0 0 10.574 8.792l8.384-10.532a308.844 308.844 0 0 1-10.132-8.426l-8.826 10.166z m329.802 39.76l5.328 12.362a316.632 316.632 0 0 0 12.472-5.702l-5.854-12.122c-3.94 1.906-7.924 3.726-11.946 5.462z m-49.9 16.548l3.112 13.096c4.474-1.062 8.91-2.22 13.308-3.47l-3.68-12.95a299.674 299.674 0 0 1-12.74 3.324z m6.688-606.478a319.36 319.36 0 0 0-13.414-3.044l-2.69 13.19c4.312 0.88 8.59 1.852 12.836 2.916l3.268-13.062z m18.632 599.282l4.242 12.776a316.634 316.634 0 0 0 12.95-4.612l-4.786-12.582c-4.098 1.56-8.234 3.034-12.406 4.418z m202.168-224.592l13.156 2.874c0.964-4.41 1.85-8.95 2.638-13.498l-13.27-2.294c-0.75 4.34-1.586 8.644-2.524 12.918z m-6.718 25.452l12.848 4.008a313.616 313.616 0 0 0 3.804-13.22l-13.016-3.436a296.382 296.382 0 0 1-3.636 12.648zM523.502 792.912l1.964 13.318c4.548-0.672 9.066-1.44 13.554-2.304l-2.542-13.218c-4.294 0.824-8.62 1.56-12.976 2.204z m257.822-262.7l13.348 1.728c0.582-4.506 1.078-9.108 1.464-13.674l-13.41-1.14a309.252 309.252 0 0 1-1.402 13.086z m2.514-39.398c0 4.412-0.096 8.802-0.28 13.168l13.454 0.568c0.192-4.554 0.29-9.134 0.29-13.736h-13.464z m-61.744 184.162l10.736 8.116a327.73 327.73 0 0 0 8.06-11.14l-11.07-7.656a315.68 315.68 0 0 1-7.726 10.68z m14.982-21.68l11.394 7.168a325.708 325.708 0 0 0 7.078-11.8l-11.692-6.676a314.056 314.056 0 0 1-6.78 11.308z m24.12-46.844l12.462 5.088a324.862 324.862 0 0 0 4.934-12.86l-12.664-4.556a314.086 314.086 0 0 1-4.732 12.328z m-11.048 23.948l11.972 6.154a321.41 321.41 0 0 0 6.034-12.376l-12.226-5.636c-1.844 4-3.772 7.954-5.78 11.858z m-63.3 83.654l9.194 9.838a322.59 322.59 0 0 0 9.838-9.596l-9.606-9.432a302.67 302.67 0 0 1-9.426 9.19zM341.492 202.786a318.758 318.758 0 0 0-12.254 6.166l6.306 11.894c3.864-2.05 7.78-4.02 11.742-5.908l-5.794-12.152z m21.786 585.452c4.26 1.652 8.618 3.232 12.958 4.698l4.312-12.752a306.136 306.136 0 0 1-12.406-4.5l-4.864 12.554z m-25.234-11.062a316.334 316.334 0 0 0 12.496 5.804l5.404-12.33a304.984 304.984 0 0 1-11.962-5.556l-5.938 12.082z m54.842-593.608c-4.4 1.222-8.83 2.558-13.166 3.97l4.168 12.8c4.16-1.354 8.362-2.62 12.6-3.798l-3.602-12.972zM313.884 763.98a316.752 316.752 0 0 0 11.936 6.86l6.454-11.814a301.308 301.308 0 0 1-11.43-6.568l-6.96 11.522z m-22.922-15.222a325.788 325.788 0 0 0 11.292 7.858l7.45-11.214a304.99 304.99 0 0 1-10.82-7.526l-7.922 10.882z m26.288-533.116a320.092 320.092 0 0 0-11.686 7.204l7.306 11.306a306.1 306.1 0 0 1 11.198-6.9l-6.818-11.61z m211.84-39.684c-4.51-0.72-9.05-1.346-13.62-1.874l-1.542 13.372c4.378 0.506 8.724 1.106 13.042 1.794l2.12-13.292z m-139.738 621.1a317.86 317.86 0 0 0 13.284 3.548l3.19-13.078a302.432 302.432 0 0 1-12.72-3.396l-3.754 12.926z m81.626-0.938l-0.324 13.458a325.45 325.45 0 0 0 13.742 0.04l-0.246-13.46c-4.386 0.078-8.804 0.068-13.172-0.038z m3.352-624.136c-4.606 0.06-9.186 0.214-13.742 0.466l0.744 13.442a308.42 308.42 0 0 1 13.164-0.448l-0.166-13.46z m27.462 0.814a321.304 321.304 0 0 0-13.726-0.698l-0.404 13.456c4.414 0.132 8.796 0.354 13.156 0.67l0.974-13.428z m-82.124 4.568c-4.476 0.832-9.006 1.78-13.46 2.812l3.038 13.114c4.262-0.988 8.556-1.886 12.886-2.692l-2.464-13.234z m77.642 618.27l0.816 13.438c4.596-0.28 9.164-0.658 13.704-1.13l-1.394-13.39a301.24 301.24 0 0 1-13.126 1.082z m-81.248 7.936c4.48 0.888 8.994 1.682 13.542 2.382l2.042-13.306a303.472 303.472 0 0 1-12.964-2.28l-2.62 13.204z m27.168 4.178c4.538 0.5 9.1 0.902 13.69 1.208l0.898-13.432c-4.398-0.294-8.77-0.68-13.116-1.158l-1.472 13.382z m3.654-634.25c-4.58 0.45-9.13 0.998-13.65 1.638l1.894 13.328c4.328-0.614 8.686-1.138 13.072-1.568l-1.316-13.398zM843.51 93.944a556.678 556.678 0 0 1 9.672 9.142l9.37-9.67a542.41 542.41 0 0 0-9.916-9.37l-9.126 9.898z m28.722 9.092l-9.614 9.426a520.024 520.024 0 0 1 9.19 9.612l9.852-9.176a534.632 534.632 0 0 0-9.428-9.862z m18.58 19.962l-10.08 8.922a526.012 526.012 0 0 1 8.676 10.068l10.306-8.662a512.056 512.056 0 0 0-8.902-10.328z m33.94 42.65l-10.956 7.82c2.568 3.6 5.092 7.234 7.568 10.904l11.158-7.536a535.532 535.532 0 0 0-7.77-11.188z m-16.406-21.76l-10.534 8.38a517.572 517.572 0 0 1 8.138 10.5l10.746-8.11a560.242 560.242 0 0 0-8.35-10.77z m31.648 44.338l-11.35 7.238a487.706 487.706 0 0 1 6.976 11.276l11.542-6.934a521.888 521.888 0 0 0-7.168-11.58z m-116.5-111.824a545.288 545.288 0 0 1 10.128 8.65l8.87-10.13a558.312 558.312 0 0 0-10.382-8.864l-8.616 10.344z m-64.966-46.538c3.8 2.33 7.564 4.7 11.288 7.11l7.31-11.308a592.356 592.356 0 0 0-11.56-7.276l-7.038 11.474z m252.01 455.81l13.462-0.052c-0.018-4.554-0.08-9.088-0.188-13.6l-13.462 0.33c0.108 4.42 0.17 8.86 0.188 13.322zM780.93 44.342a563.462 563.462 0 0 1 10.934 7.63l7.836-10.946a584.48 584.48 0 0 0-11.196-7.814l-7.574 11.13z m21.678 15.516a540.892 540.892 0 0 1 10.544 8.146l8.362-10.552a561.808 561.808 0 0 0-10.806-8.348l-8.1 10.754z m213.728 330.896l-13.286 2.152c0.706 4.362 1.362 8.75 1.976 13.158l13.33-1.848a582.654 582.654 0 0 0-2.02-13.462z m-62.32-179.19l-11.718 6.626a521.414 521.414 0 0 1 6.376 11.626l11.884-6.328a535.636 535.636 0 0 0-6.542-11.924z m66.048 206.162l-13.374 1.532c0.504 4.388 0.956 8.8 1.358 13.234l13.41-1.218c-0.412-4.54-0.88-9.056-1.394-13.548z m-15.022-80.26l-13.016 3.43c1.122 4.272 2.2 8.57 3.226 12.896l13.102-3.106a525.214 525.214 0 0 0-3.312-13.22z m17.5 107.37l-13.428 0.924a640 640 0 0 1 0.768 13.288l13.444-0.628a614.86 614.86 0 0 0-0.784-13.584z m-12.472 67.472l13.454 0.51c0.17-4.55 0.302-9.082 0.38-13.594l-13.462-0.236c-0.08 4.42-0.202 8.86-0.372 13.32z m1.27-148.332l-13.172 2.784c0.916 4.324 1.78 8.672 2.598 13.046l13.234-2.476a583.716 583.716 0 0 0-2.66-13.354z m-13.9-52.682l-12.832 4.076a544.9 544.9 0 0 1 3.87 12.72l12.928-3.762a575.236 575.236 0 0 0-3.966-13.034z m-19.142-51.032l-12.34 5.374a514.444 514.444 0 0 1 5.14 12.25l12.48-5.052a509.13 509.13 0 0 0-5.28-12.572z m-11.508-24.676l-12.05 6.008c1.968 3.946 3.892 7.92 5.758 11.928l12.2-5.686c-1.92-4.118-3.888-8.2-5.908-12.25z m21.736 49.948l-12.604 4.73a531.924 531.924 0 0 1 4.51 12.5l12.718-4.406a513.044 513.044 0 0 0-4.624-12.824zM135.148 893.556l-8.616 10.344c61.462 51.192 132.176 87.436 210.178 107.73l3.39-13.028c-76.066-19.792-145.022-55.134-204.952-105.046zM92.696 853.76l-9.782 9.25c10.218 10.802 19.344 19.754 27.12 26.608l8.9-10.098c-7.472-6.584-16.298-15.252-26.238-25.76zM53.888 809.874l-10.39 8.558c0.116 0.14 11.742 14.24 26.742 30.848l9.992-9.022c-14.784-16.368-26.23-30.246-26.344-30.384z" fill="#4B555F" p-id="2449"></path></svg>