<?xml version="1.0" standalone="no"?><!DOCTYPE svg PUBLIC "-//W3C//DTD SVG 1.1//EN" "http://www.w3.org/Graphics/SVG/1.1/DTD/svg11.dtd"><svg t="1588059451173" class="icon" viewBox="0 0 1024 1024" version="1.1" xmlns="http://www.w3.org/2000/svg" p-id="2002" xmlns:xlink="http://www.w3.org/1999/xlink" width="200" height="200"><defs><style type="text/css"></style></defs><path d="M188.795 962.06l330.155-0.047-0.01-72-315.94 0.046V133h618v355.633h72V121c0-32.079-24.557-59.448-56.81-60h-647.4c-32.407 0-57.288 27.048-57.79 59.03v782.03c0 32.08 24.557 59.448 56.815 60h0.98z" fill="#ffffff" p-id="2003"></path><path d="M777.68 536c20.748 0 37.569 16.788 37.569 37.496 0 11.56-5.242 21.9-13.483 28.777v57.79c18.66 3.673 35.619 12.086 49.57 23.933l29.121-21.204c-0.01-0.356-0.015-0.712-0.015-1.07 0-20.709 16.82-37.496 37.569-37.496 20.749 0 37.57 16.787 37.57 37.496 0 20.708-16.821 37.496-37.57 37.496-4.759 0-9.311-0.883-13.501-2.494l-27.107 19.738C885.446 731.702 890 749.069 890 767.5c0 12.308-2.03 24.141-5.775 35.184l24.741 17.016a37.544 37.544 0 0 1 13.465-2.48c20.749 0 37.569 16.788 37.569 37.496 0 20.709-16.82 37.496-37.57 37.496-20.748 0-37.568-16.787-37.568-37.496 0-0.42 0.007-0.838 0.02-1.255l-21.29-14.642C843.51 862.194 813.734 877 780.5 877c-1.407 0-2.808-0.027-4.202-0.08l-5.085 21.588a37.31 37.31 0 0 1 7.847 16.167c4.32 20.267-8.655 40.19-28.98 44.497-20.325 4.308-40.303-8.63-44.624-28.897-4.094-19.205 7.343-38.101 25.848-43.694l4.495-19.09c-27.035-12.106-48.266-34.853-58.363-62.915l-45.134 10.42c-5.637 13.605-19.065 23.178-34.733 23.178-20.749 0-37.569-16.788-37.569-37.496 0-20.709 16.82-37.496 37.57-37.496 10.388 0 19.791 4.208 26.592 11.01l46.915-10.832c0.71-19.095 6.309-36.94 15.581-52.319l-29.04-23.515a37.614 37.614 0 0 1-11.43 1.767c-20.749 0-37.57-16.788-37.57-37.496 0-20.709 16.821-37.496 37.57-37.496s37.569 16.787 37.569 37.496c0 1.1-0.048 2.19-0.14 3.267l30.911 25.033c13.204-9.982 28.741-17.041 45.649-20.215v-53.2c-11.933-6.28-20.067-18.785-20.067-33.186 0-20.708 16.82-37.496 37.57-37.496z m-18.084-283.596v80.192h-495v-80.192h495z" fill="#ffffff" p-id="2004"></path></svg>